# xmcd CD database file
#
# Track frame offsets:
#	150
#	19625
#	40420
#	61680
#	89550
#	111593
#	129081
#	149814
#	174510
#	192945
#	221781
#	242308
#	268579
#	290787
#	310423
#	329494
#
# Disc length: 4659 seconds
#
# Revision: 0
# Processed by: cddbd v1.5.2PL0 Copyright (c) Steve Scherf et al.
# Submitted via: CDex 1.70beta2
#
DISCID=f8123110
DTITLE=Aa Vv - Salsa pegajosa
DYEAR=2006
DGENRE=Salsa
TTITLE0=Cuando hablan las miradas
TTITLE1=Fabricando fantasias
TTITLE2=A prueba de fuego
TTITLE3=Como Wanuco
TTITLE4=Vivir asi
TTITLE5=Cuanto te debo
TTITLE6=La magia del amor
TTITLE7=Segundo a segundo
TTITLE8=Tu amigo o tu amante
TTITLE9=El tun tun de tu corazon
TTITLE10=Saa libre
TTITLE11=Hola rola
TTITLE12=Amor perfecto
TTITLE13=Reggaetona
TTITLE14=Cuando la olvide que
TTITLE15=Marcela
EXTD=YEAR: 2006
EXTT0=
EXTT1=
EXTT2=
EXTT3=
EXTT4=
EXTT5=
EXTT6=
EXTT7=
EXTT8=
EXTT9=
EXTT10=
EXTT11=
EXTT12=
EXTT13=
EXTT14=
EXTT15=
PLAYORDER=
